<svg xmlns="http://www.w3.org/2000/svg" viewBox="0 0 895.1479 125.8495"><defs><style>.cls-1{fill:#333;stroke:#fff;stroke-miterlimit:10;stroke-width:1.388px;}.cls-2{fill:#c0e8fb;}.cls-3{fill:#00a99d;}.cls-4{fill:#3f80af;}.cls-5{fill:#3f80ae;}.cls-6{fill:#00427e;}.cls-7,.cls-8{fill:#d7f0fc;}.cls-8{opacity:0.85;}</style></defs><g id="Layer_2" data-name="Layer 2"><g id="Layer_1-2" data-name="Layer 1"><path class="cls-1" d="M157.61,10.8654h28.7863c31.8259,0,51.6824,16.7635,51.6824,52.95s-19.8565,53.85-50.5033,53.85H157.61Zm27.443,88.9176c18.9026,0,30.8721-10.1512,30.8721-35.9672,0-25.8131-11.97-35.0681-30.8721-35.0681H179.21V99.783Z"/><path class="cls-1" d="M246.822,95.4965c0-17.1488,13.51-26.2983,45.1276-29.7429-.2149-4.24-1.3529-7.8478-3.9-10.2312-.6077-.5687-2.6479-2.2827-9.2627-3.0649a47.0883,47.0883,0,0,0-15.2267.7249l-10.8348,3.5032q-.6189-8.2313-1.2378-16.4624a63.2018,63.2018,0,0,1,31.39-5.4083c7.7852.7264,15.0637,1.3438,20.4777,6.6723,7.9377,7.8124,7.4756,21.3553,7.1454,31.0344-.416,12.1929-3.64,21.128,2.0032,27.5515a14.0759,14.0759,0,0,0,3.8594,3.0548l-.0681,14.0823a24.7437,24.7437,0,0,1-14.5317-2.2561,24.0773,24.0773,0,0,1-7.4586-5.8276h-.5535c-6.7967,6.0616-14.4779,10.5022-23.5078,10.5022C256.0883,119.6287,246.822,109.2978,246.822,95.4965Zm45.1275-.6392V79.1981c-18.4075,2.4772-24.47,7.6712-24.47,14.56,0,5.9446,3.9685,8.7128,9.9171,8.7128C283.1115,102.4713,287.1634,99.5832,291.95,94.8573Z"/><path class="cls-1" d="M319.426,36.7813H341.11l11.11,39.6058c2.08,8.0108,4.2438,16.35,6.324,24.6744h.6369c2.08-8.3247,4.2438-16.6636,6.324-24.6744l11.11-39.6058h20.6574l-26.1138,80.884H346.33Z"/><path class="cls-1" d="M437.3883,77.2661c0-26.4125,16.0994-42.4511,32.95-42.4511,8.7769,0,14.2137,3.3589,19.8315,8.61q1.5079-20.1687,3.0161-40.3374l19.5693-.206c-.3748,11.6415-1.2351,20.8971-1.8613,26.6548,0,.0006-1.6687,46.3184-1.9208,65.4046-.0546,4.1334,1.8684,7.6681,4.8818,8.931a7.1687,7.1687,0,0,0,3.9434.4l-.3189,13.1083c-1.9547.5682-11.3274,3.0737-19.7156-2.2443a21.5658,21.5658,0,0,1-6.0283-5.7667h-.5535c-5.6733,5.819-13.5769,10.26-21.5111,10.26C450.0614,119.6287,437.3883,103.7756,437.3883,77.2661Zm51.9911,16.2955V58.6646A20.3776,20.3776,0,0,0,475.2018,52.94c-8.4877,0-15.7433,8.1449-15.7433,24.0837,0,16.5238,5.7984,24.48,15.7155,24.48C480.5692,101.5039,485.0077,99.255,489.3794,93.5616Z"/><path class="cls-1" d="M686.648,77.2661c0-26.909,19.0111-42.4511,40.4916-42.4511a33.5643,33.5643,0,0,1,23.0324,8.8526L739.9128,57.9084c-3.924-3.4589-7.3919-5.2083-11.594-5.2083-11.7887,0-19.5978,9.7345-19.5978,24.566,0,14.8286,7.9453,24.48,18.8886,24.48,5.5481,0,10.7653-2.8054,15.0092-6.347l8.5238,14.48a38.5972,38.5972,0,0,1-25.8885,9.7487C703.4426,119.6287,686.648,104.09,686.648,77.2661Z"/><path class="cls-1" d="M759.8749,2.652h21.044V70.8107h.5561l26.5866-34.0294h22.089q-.071,1.3972-.142,2.7945L804.09,69.9659q13.9029,22.3049,27.8059,44.61.0618,1.5448.1238,3.09H810.49l-18.694-32.8907-10.8766,12.74v20.1511h-21.044Z"/><path class="cls-1" d="M832.6375,108.3446l9.7864-13.8441c7.086,5.565,13.7493,8.6957,20.8715,8.6957,7.5755,0,10.9739-3.2591,10.9739-7.9851,0-5.8789-8.0872-8.5273-16.3107-11.8007-9.9143-3.8926-21.3415-10.2881-21.3415-23.707,0-14.6688,11.5913-24.8884,29.5761-24.8884,11.6608,0,20.5768,4.8458,27.1789,10.0341L883.6663,58.208c-5.5731-4.1695-11.1129-6.96-16.85-6.96-6.7468,0-10.0145,2.9765-10.0145,7.4029,0,5.6221,7.6005,7.771,15.9074,10.89,10.2342,3.8984,21.7448,9.4748,21.7448,24.3748,0,14.3577-11.0518,25.7132-31.7119,25.7132C852.2019,119.6287,840.5133,114.9627,832.6375,108.3446Z"/><path class="cls-1" d="M402.4384,12.5461C402.4384,5.56,407.8169.694,415.1643.694c7.35,0,12.7287,4.8658,12.7287,11.8521,0,6.9006-5.3785,11.852-12.7287,11.852C407.8169,24.3981,402.4384,19.4467,402.4384,12.5461Zm1.9273,24.5631h20.3209c-.1638,23.692-.0883,41.6713-.2556,50.9559-.0457,2.5371-.1806,8.3609,3.5409,11.6333a9.8306,9.8306,0,0,0,5.5566,2.2526l.3345,14.5307c-10.2927,2.6856-20.17.0458-24.9719-5.6919a25.654,25.654,0,0,1-5.3019-11.6752,23.9346,23.9346,0,0,1-.3314-4.0806C403.256,88.8485,403.6746,66.7946,404.3657,37.1092Z"/><path class="cls-1" d="M648.5232,14.5712c0-6.9862,5.3785-11.852,12.7259-11.852,7.35,0,12.7288,4.8658,12.7288,11.852,0,6.9007-5.3785,11.8521-12.7288,11.8521C653.9017,26.4233,648.5232,21.4719,648.5232,14.5712Zm1.9273,24.5632h20.3209c-.1637,23.692-.0882,41.6713-.2556,50.9559-.0457,2.5371-.1806,8.3609,3.5409,11.6333a9.8309,9.8309,0,0,0,5.5566,2.2526q.1672,7.2654.3346,14.5307c-10.2927,2.6856-20.17.0458-24.972-5.6919A25.654,25.654,0,0,1,649.674,101.14a23.9346,23.9346,0,0,1-.3314-4.0806C649.3408,90.8737,649.7594,68.82,650.4505,39.1344Z"/><path class="cls-1" d="M616.9405,10.8654q-1.1087,20.9132-2.2178,41.8261H576.8464q-1.1088-20.9131-2.2179-41.8261H555.2462v106.8h19.75q.9247-22.8208,1.85-45.6418h37.8763q.9247,22.821,1.85,45.6418h19.75v-106.8Z"/><path class="cls-2" d="M64.5356,83.8844c.04,3.5115-.0251,7.2274-.2322,11.126-.17,3.1969-.4215,6.2585-.7328,9.1749a124.6366,124.6366,0,0,0-4.96-11.5565c-1.5573-3.176-3.1585-6.1-4.7446-8.77A10.9645,10.9645,0,0,1,61.1667,82.58,10.201,10.201,0,0,1,64.5356,83.8844Z"/><path class="cls-3" d="M37.9328,62.66a76.7,76.7,0,0,1-15.2613-10.476A67.2823,67.2823,0,0,1,7.5286,33.8086,57.68,57.68,0,0,1,.0874,2.1654C.1207,1.55.0971,1.1.97,1.5116,31.787,16.0427,42.6729,29.9673,42.6729,29.9673c1.78,1.9136,4.4777,4.896,7.6218,8.7311-.0949.1232-.2068.2685-.3106.4035-2.859,3.7178-4.2886,5.5767-5.0833,6.721a33.89,33.89,0,0,0-3.9937,7.9226c-.2711.74-.95,2.7927-2.3086,6.8971C38.3188,61.4878,38.0884,62.1866,37.9328,62.66Z"/><path class="cls-3" d="M80.9585,39.2678a98.2366,98.2366,0,0,1,14.6006-14.92A153.48,153.48,0,0,1,128.27,3.5031c1.1519-.5575,1.16-.5511,1.2255.7248a58.8771,58.8771,0,0,1-1.7429,17.867,63.0033,63.0033,0,0,1-10.7078,21.6425h0a100.777,100.777,0,0,1-9.8723,10.1469A100.8082,100.8082,0,0,1,93.8,63.9571l-1.4012-3.7957a3.8069,3.8069,0,0,0-.335-1.6734,54.1287,54.1287,0,0,0-7.4747-14.714A30.3609,30.3609,0,0,0,80.9585,39.2678Z"/><path class="cls-4" d="M93.8,63.9571a53.4307,53.4307,0,0,1,.4037,16.2207,55.1384,55.1384,0,0,1-2.2534,9.8756,55.9971,55.9971,0,0,1-3.2576,7.8957,67.2009,67.2009,0,0,1-11.4888,16.398,7.3387,7.3387,0,0,1-1.2177.8577l-7.54,3.4928L63.6926,120.65a6.8823,6.8823,0,0,0-1.9538.7065c-.3648.0543-.5992-.18-.8463-.3839a81.7723,81.7723,0,0,1-9.7153-9.8209.7216.7216,0,0,1-.2414-.6727c2.0346-1.3771,4.744-3.3081,7.8132-5.7929,2.2532-1.8242,3.8819-3.2842,5.2347-4.5,3.736-3.3585,6.6781-6.3278,8.8336-8.51.3722-.3767,1.1649-1.1792,1.8686-1.91A134.7579,134.7579,0,0,0,92.3382,66.48C92.9245,65.494,93.4173,64.6353,93.8,63.9571Z"/><path class="cls-5" d="M80.9946,39.301a30.3557,30.3557,0,0,1,3.6309,4.5062A54.1282,54.1282,0,0,1,92.1,58.5211a3.8067,3.8067,0,0,1,.3349,1.6739c-2.79,2.877-7.3826,7.4952-11.8,11.3184-1.164,1.0073-2.5423,2.1658-2.5424,2.1659-2.4067,1.9907-4.8539,3.9325-7.2838,5.8952q-1.5837,1.1068-3.1988,2.2163-1.5432,1.06-3.0741,2.0936c-.158-3.1052-.4113-7.6843-.7973-13.2748-.4407-6.3826-.6056-7.57-.79-8.6515C61.506,53.5,58.1291,47.9669,58.3945,47.8429c.2258-.1055,2.5778,3.9418,4.5882,8.9516A64.8108,64.8108,0,0,1,65.3566,63.86c.405-.1368.4271-.5.5562-.7724A124.963,124.963,0,0,1,80.3073,39.9546C80.5006,39.7057,80.6616,39.409,80.9946,39.301Z"/><path class="cls-5" d="M46.105,69.4526A165.9169,165.9169,0,0,0,56.88,88.66q-2.2244,1.15-4.5884,2.2775c-3.6507,1.7372-7.2,3.2507-10.6131,4.5723a64.8023,64.8023,0,0,1-4.6629-15.6477,45.4856,45.4856,0,0,1-.4148-7.3472A46.5063,46.5063,0,0,1,40.27,55.6326C41.8823,59.9919,43.8046,64.6263,46.105,69.4526Z"/><path class="cls-6" d="M40.393,55.2438l-.094.0878c.0048-.0206.0029-.05.0159-.06a.2588.2588,0,0,1,.078-.0278Z"/><path class="cls-7" d="M41.6783,95.5094a110.745,110.745,0,0,0,10.6131-4.5723,118.2134,118.2134,0,0,0,12.2442-7.0527A135.247,135.247,0,0,0,79.232,72.6466,178.085,178.085,0,0,0,92.3991,60.1614L93.8,63.9571a105.0924,105.0924,0,0,1-7.36,11.9465A131.4286,131.4286,0,0,1,74.2945,90.2472c-3.9113,4.189-7.0415,7.0906-8.2037,8.1695-4.47,4.15-6.7735,5.5187-11.1422,9.3093-.83.72-2.1607,1.8962-3.7714,3.426a61.6269,61.6269,0,0,1-9.4989-15.6426Z"/><path class="cls-7" d="M91.18,92.26c.2025.0983-4.653,16.134-18.7735,29.413-1.906,1.7923-3.6144,3.19-4.8864,4.1768-1.1779-.7291-2.3987-1.5448-3.6442-2.4577a56.3338,56.3338,0,0,1-6.6945-5.7677c7.39-.6864,16.9475-2.9251,24.461-9.98A37.2016,37.2016,0,0,0,91.18,92.26Z"/><path class="cls-6" d="M65.3566,63.86c4.556,17.8081-.5213,37.0283-1.8083,41.6058A410.897,410.897,0,0,1,43.4958,63.6983q-1.6724-4.0565-3.2259-8.0657A41.1514,41.1514,0,0,1,50.2947,38.6984a43.11,43.11,0,0,1,6.0967,6.1439A46.9172,46.9172,0,0,1,65.3566,63.86Z"/><path class="cls-8" d="M55.1749,89.4578a13.6387,13.6387,0,0,0,4.9405,14.0387c1.5592-1.2156,3.1735-2.5489,4.82-4.0086,1.7972-1.5932,3.4413-3.1672,4.94-4.6917a26.402,26.402,0,0,0-2.6911-12.6971Z"/></g></g></svg>