<svg xmlns="http://www.w3.org/2000/svg" xmlns:xlink="http://www.w3.org/1999/xlink" viewBox="0 0 1367 528.0344"><defs><style>.cls-1{fill:url(#linear-gradient);}.cls-2{fill:#fff;}.cls-3{fill:url(#linear-gradient-2);}</style><linearGradient id="linear-gradient" x1="684" y1="528.0344" x2="684" y2="51" gradientUnits="userSpaceOnUse"><stop offset="0.5674" stop-color="#1e9cd7"/><stop offset="0.8044" stop-color="#005b97"/></linearGradient><linearGradient id="linear-gradient-2" x1="683" y1="477.0344" x2="683" gradientUnits="userSpaceOnUse"><stop offset="0.0755" stop-color="#1e9cd7"/><stop offset="0.3127" stop-color="#1e99d5"/><stop offset="0.4691" stop-color="#2090d0"/><stop offset="0.6022" stop-color="#2281c6"/><stop offset="0.7222" stop-color="#256cb8"/><stop offset="0.8324" stop-color="#2951a7"/><stop offset="0.9329" stop-color="#2e3192"/></linearGradient></defs><g id="Layer_2" data-name="Layer 2"><g id="Layer_1-2" data-name="Layer 1"><path class="cls-1" d="M1367,519c-188.4679-54.8212-332.9918-50.24-430-36-112.6965,16.5426-161.7024,46.1839-288,45-127.3423-1.1937-166.2919-32.1595-288-45-83.6548-8.8258-205.6613-9.01-360,36V51H1367Z"/><path class="cls-2" d="M1367,494c-188.4679-54.8212-332.9918-50.24-430-36-112.6965,16.5426-161.7024,46.1839-288,45-127.3423-1.1937-166.2919-32.1595-288-45-83.6548-8.8258-205.6613-9.01-360,36V26H1367Z"/><path class="cls-3" d="M1366,468c-188.4679-54.8212-332.9918-50.24-430-36-112.6965,16.5426-161.7024,46.1839-288,45-127.3423-1.1937-166.2919-32.1595-288-45-83.6548-8.8258-205.6613-9.01-360,36V0H1366Z"/></g></g></svg>