<svg xmlns="http://www.w3.org/2000/svg" viewBox="0 0 738.23 120.32"><defs><style>.cls-1{stroke:#fff;stroke-miterlimit:10;stroke-width:1.39px;}</style></defs><g id="Layer_2" data-name="Layer 2"><g id="Layer_1-2" data-name="Layer 1"><path class="cls-1" d="M.69,10.87H29.48c31.83,0,51.68,16.76,51.68,53s-19.85,53.85-50.5,53.85H.69ZM28.14,99.78C47,99.78,59,89.63,59,63.82S47,28.75,28.14,28.75H22.29v71Z"/><path class="cls-1" d="M89.91,95.5c0-17.15,13.51-26.3,45.12-29.75-.21-4.24-1.35-7.84-3.9-10.23-.6-.57-2.64-2.28-9.26-3.06a47.1,47.1,0,0,0-15.23.72L95.81,56.69q-.61-8.23-1.24-16.47A63.24,63.24,0,0,1,126,34.81c7.79.73,15.07,1.35,20.48,6.68,7.94,7.81,7.48,21.35,7.15,31-.42,12.19-3.64,21.13,2,27.55a14.13,14.13,0,0,0,3.86,3.06l-.07,14.08A24.66,24.66,0,0,1,144.85,115a24,24,0,0,1-7.46-5.82h-.55c-6.8,6.06-14.48,10.5-23.51,10.5C99.17,119.63,89.91,109.3,89.91,95.5ZM135,94.86V79.2c-18.4,2.48-24.47,7.67-24.47,14.56,0,5.94,4,8.71,9.92,8.71C126.2,102.47,130.25,99.58,135,94.86Z"/><path class="cls-1" d="M162.51,36.78h21.68L195.3,76.39c2.08,8,4.25,16.35,6.33,24.67h.63c2.09-8.32,4.25-16.66,6.33-24.67L219.7,36.78h20.66l-26.12,80.89H189.41Z"/><path class="cls-1" d="M280.47,77.27c0-26.42,16.1-42.46,32.95-42.46,8.78,0,14.22,3.36,19.83,8.62q1.51-20.17,3-40.34l19.57-.21c-.38,11.64-1.24,20.9-1.86,26.66,0,0-1.67,46.31-1.92,65.4-.06,4.13,1.87,7.67,4.88,8.93a7.12,7.12,0,0,0,3.94.4l-.32,13.11c-1.95.57-11.32,3.07-19.71-2.24a21.51,21.51,0,0,1-6-5.77h-.55c-5.68,5.82-13.58,10.26-21.52,10.26C293.15,119.63,280.47,103.78,280.47,77.27Zm52,16.29V58.66a20.4,20.4,0,0,0-14.17-5.72c-8.49,0-15.75,8.14-15.75,24.08,0,16.53,5.8,24.48,15.72,24.48C323.65,101.5,328.09,99.26,332.46,93.56Z"/><path class="cls-1" d="M529.73,77.27c0-26.91,19-42.46,40.49-42.46a33.59,33.59,0,0,1,23,8.86L583,57.91c-3.93-3.46-7.39-5.21-11.6-5.21-11.79,0-19.59,9.73-19.59,24.57s7.94,24.48,18.88,24.48c5.55,0,10.77-2.81,15-6.35l8.53,14.48a38.61,38.61,0,0,1-25.89,9.75C546.53,119.63,529.73,104.09,529.73,77.27Z"/><path class="cls-1" d="M603,2.65h21V70.81h.56l26.59-34h22.08c0,.93-.09,1.86-.14,2.8L647.17,70,675,114.58l.12,3.09H653.57l-18.69-32.9L624,97.51v20.16H603Z"/><path class="cls-1" d="M675.72,108.34l9.79-13.84c7.08,5.57,13.75,8.7,20.87,8.7,7.58,0,11-3.26,11-8,0-5.88-8.08-8.53-16.31-11.8-9.91-3.89-21.34-10.29-21.34-23.71,0-14.67,11.59-24.89,29.58-24.89,11.66,0,20.57,4.85,27.18,10l-9.71,13.36c-5.57-4.17-11.11-7-16.85-7-6.75,0-10,3-10,7.4,0,5.62,7.6,7.77,15.9,10.89C726,73.44,737.54,79,737.54,93.92c0,14.35-11,25.71-31.71,25.71C695.29,119.63,683.6,115,675.72,108.34Z"/><path class="cls-1" d="M245.52,12.55c0-7,5.38-11.86,12.73-11.86S271,5.56,271,12.55,265.6,24.4,258.25,24.4,245.52,19.45,245.52,12.55Zm1.93,24.56h20.32c-.16,23.69-.09,41.67-.25,51,0,2.53-.19,8.36,3.54,11.63a9.82,9.82,0,0,0,5.55,2.25q.17,7.26.34,14.53c-10.3,2.69-20.17,0-25-5.69a25.68,25.68,0,0,1-5.31-11.68,24.25,24.25,0,0,1-.33-4.08C246.34,88.85,246.76,66.79,247.45,37.11Z"/><path class="cls-1" d="M491.61,14.57c0-7,5.38-11.85,12.72-11.85s12.73,4.87,12.73,11.85-5.38,11.85-12.73,11.85S491.61,21.47,491.61,14.57Zm1.92,24.56h20.33c-.17,23.7-.09,41.68-.26,51-.05,2.54-.18,8.36,3.54,11.63A9.86,9.86,0,0,0,522.7,104l.33,14.53c-10.29,2.68-20.17,0-25-5.7a25.54,25.54,0,0,1-5.3-11.67,23.26,23.26,0,0,1-.33-4.08C492.43,90.87,492.84,68.82,493.53,39.13Z"/><path class="cls-1" d="M460,10.87q-1.09,20.91-2.21,41.82H419.93l-2.22-41.82H398.33v106.8h19.75Q419,94.84,419.93,72h37.88q.92,22.83,1.85,45.65h19.75V10.87Z"/></g></g></svg>